<svg xmlns="http://www.w3.org/2000/svg" viewBox="0 0 640 360">
  <title>Knife Dodge artwork</title>
  <defs>
    <linearGradient id="bg" x1="0" y1="0" x2="1" y2="1">
      <stop offset="0" stop-color="#1c0f14"/>
      <stop offset="1" stop-color="#05070f"/>
    </linearGradient>
  </defs>
  <rect width="640" height="360" fill="url(#bg)"/>
  <g fill="#fb7185" opacity=".10">
    <path d="M320 0 L160 360 L266 360 Z"/>
    <path d="M320 0 L374 360 L480 360 Z"/>
  </g>
  <g>
    <g transform="translate(150 90)">
      <path d="M0 -34 L9 -12 L9 16 L-9 16 L-9 -12 Z" fill="#cbd5e1"/>
      <rect x="-11" y="16" width="22" height="16" rx="3" fill="#78350f"/>
    </g>
    <g transform="translate(320 60)">
      <path d="M0 -34 L9 -12 L9 16 L-9 16 L-9 -12 Z" fill="#e2e8f0"/>
      <rect x="-11" y="16" width="22" height="16" rx="3" fill="#78350f"/>
    </g>
    <g transform="translate(490 110)">
      <path d="M0 -34 L9 -12 L9 16 L-9 16 L-9 -12 Z" fill="#cbd5e1"/>
      <rect x="-11" y="16" width="22" height="16" rx="3" fill="#78350f"/>
    </g>
    <g transform="translate(410 200)">
      <path d="M0 -34 L9 -12 L9 16 L-9 16 L-9 -12 Z" fill="#94a3b8"/>
      <rect x="-11" y="16" width="22" height="16" rx="3" fill="#78350f"/>
    </g>
  </g>
  <rect x="0" y="316" width="640" height="44" fill="#292524"/>
  <g transform="translate(230 316)">
    <path d="M0 -34 L9 -12 L9 16 L-9 16 L-9 -12 Z" fill="#64748b"/>
    <rect x="-11" y="16" width="22" height="16" rx="3" fill="#451a03"/>
  </g>
  <circle cx="320" cy="272" r="22" fill="#4ade80"/>
  <rect x="309" y="288" width="22" height="28" rx="6" fill="#4ade80"/>
  <circle cx="312" cy="268" r="4" fill="#052e16"/>
  <circle cx="328" cy="268" r="4" fill="#052e16"/>
</svg>
