<svg xmlns="http://www.w3.org/2000/svg" viewBox="0 0 640 360">
  <title>Racing in City artwork — original night city traffic illustration</title>
  <rect width="640" height="360" fill="#060a16"/>
  <defs>
    <linearGradient id="skyline" x1="0" y1="0" x2="0" y2="1">
      <stop offset="0" stop-color="#1e1b4b"/>
      <stop offset="1" stop-color="#0b1024"/>
    </linearGradient>
  </defs>
  <rect width="640" height="200" fill="url(#skyline)"/>
  <g fill="#111a33">
    <rect x="40" y="90" width="70" height="110"/>
    <rect x="120" y="60" width="54" height="140"/>
    <rect x="184" y="110" width="80" height="90"/>
    <rect x="392" y="70" width="60" height="130"/>
    <rect x="460" y="100" width="72" height="100"/>
    <rect x="542" y="50" width="58" height="150"/>
  </g>
  <g fill="#fcd34d" opacity=".8">
    <rect x="56" y="110" width="8" height="8"/><rect x="76" y="130" width="8" height="8"/><rect x="92" y="110" width="8" height="8"/>
    <rect x="132" y="80" width="8" height="8"/><rect x="152" y="110" width="8" height="8"/>
    <rect x="410" y="90" width="8" height="8"/><rect x="432" y="120" width="8" height="8"/>
    <rect x="480" y="120" width="8" height="8"/><rect x="502" y="150" width="8" height="8"/>
    <rect x="560" y="70" width="8" height="8"/><rect x="582" y="100" width="8" height="8"/>
  </g>
  <rect x="0" y="200" width="640" height="160" fill="#101827"/>
  <g stroke="#334155" stroke-width="6" stroke-dasharray="34 26">
    <path d="M320 210 L320 360"/>
  </g>
  <path d="M150 360 L270 226 L370 226 L490 360 Z" fill="#0b1220"/>
  <g>
    <rect x="270" y="250" width="100" height="58" rx="12" fill="#ef4444"/>
    <rect x="282" y="230" width="76" height="30" rx="10" fill="#f87171"/>
    <rect x="290" y="236" width="26" height="18" rx="4" fill="#0ea5e9"/>
    <rect x="324" y="236" width="26" height="18" rx="4" fill="#0ea5e9"/>
    <rect x="276" y="300" width="18" height="10" rx="4" fill="#0f172a"/>
    <rect x="346" y="300" width="18" height="10" rx="4" fill="#0f172a"/>
    <rect x="272" y="262" width="8" height="16" rx="3" fill="#fde047"/>
    <rect x="360" y="262" width="8" height="16" rx="3" fill="#fde047"/>
  </g>
  <g opacity=".9" fill="#64748b">
    <rect x="180" y="292" width="70" height="34" rx="8"/>
    <rect x="188" y="278" width="54" height="20" rx="7"/>
  </g>
  <g fill="#f87171" opacity=".85">
    <rect x="186" y="300" width="6" height="6"/><rect x="238" y="300" width="6" height="6"/>
  </g>
</svg>
