<svg xmlns="http://www.w3.org/2000/svg" viewBox="0 0 640 360">
  <title>Turbo Drift artwork</title>
  <defs>
    <linearGradient id="bg" x1="0" y1="0" x2="0" y2="1">
      <stop offset="0" stop-color="#2b1220"/>
      <stop offset="1" stop-color="#0b0f1a"/>
    </linearGradient>
    <linearGradient id="car" x1="0" y1="0" x2="1" y2="0">
      <stop offset="0" stop-color="#fb7185"/>
      <stop offset="1" stop-color="#e11d48"/>
    </linearGradient>
  </defs>
  <rect width="640" height="360" fill="url(#bg)"/>
  <g>
    <rect x="0" y="40" width="40" height="40" fill="#e2e8f0"/>
    <rect x="40" y="40" width="40" height="40" fill="#0b0f1a"/>
    <rect x="80" y="40" width="40" height="40" fill="#e2e8f0"/>
    <rect x="120" y="40" width="40" height="40" fill="#0b0f1a"/>
    <rect x="0" y="80" width="40" height="40" fill="#0b0f1a"/>
    <rect x="40" y="80" width="40" height="40" fill="#e2e8f0"/>
    <rect x="80" y="80" width="40" height="40" fill="#0b0f1a"/>
    <rect x="120" y="80" width="40" height="40" fill="#e2e8f0"/>
    <rect x="480" y="240" width="40" height="40" fill="#e2e8f0"/>
    <rect x="520" y="240" width="40" height="40" fill="#0b0f1a"/>
    <rect x="560" y="240" width="40" height="40" fill="#e2e8f0"/>
    <rect x="600" y="240" width="40" height="40" fill="#0b0f1a"/>
    <rect x="480" y="280" width="40" height="40" fill="#0b0f1a"/>
    <rect x="520" y="280" width="40" height="40" fill="#e2e8f0"/>
    <rect x="560" y="280" width="40" height="40" fill="#0b0f1a"/>
    <rect x="600" y="280" width="40" height="40" fill="#e2e8f0"/>
  </g>
  <g fill="#fb7185" opacity=".5">
    <rect x="60" y="190" width="130" height="10" rx="5"/>
    <rect x="30" y="215" width="170" height="10" rx="5"/>
    <rect x="70" y="240" width="120" height="10" rx="5"/>
  </g>
  <polygon points="250,150 430,150 470,210 230,210" fill="url(#car)"/>
  <polygon points="300,150 340,112 420,112 440,150" fill="#881337"/>
  <polygon points="312,146 342,118 400,118 416,146" fill="#bae6fd"/>
  <rect x="240" y="204" width="240" height="16" rx="8" fill="#0b0f1a" opacity=".6"/>
  <circle cx="300" cy="222" r="30" fill="#0b0f1a"/>
  <circle cx="300" cy="222" r="14" fill="#94a3b8"/>
  <circle cx="300" cy="222" r="5" fill="#e2e8f0"/>
  <circle cx="430" cy="222" r="30" fill="#0b0f1a"/>
  <circle cx="430" cy="222" r="14" fill="#94a3b8"/>
  <circle cx="430" cy="222" r="5" fill="#e2e8f0"/>
  <polygon points="470,150 520,150 520,168 478,168" fill="#fbbf24"/>
  <circle cx="520" cy="200" r="8" fill="#fbbf24" opacity=".8"/>
  <circle cx="545" cy="215" r="5" fill="#fb923c" opacity=".7"/>
</svg>
